<?xml version="1.0" encoding="UTF-8" standalone="no"?>
<svg
   xmlns:dc="http://purl.org/dc/elements/1.1/"
   xmlns:cc="http://creativecommons.org/ns#"
   xmlns:rdf="http://www.w3.org/1999/02/22-rdf-syntax-ns#"
   xmlns:svg="http://www.w3.org/2000/svg"
   xmlns="http://www.w3.org/2000/svg"
   xmlns:sodipodi="http://sodipodi.sourceforge.net/DTD/sodipodi-0.dtd"
   xmlns:inkscape="http://www.inkscape.org/namespaces/inkscape"
   width="256"
   height="256"
   viewBox="0 0 67.733332 67.733335"
   version="1.1"
   id="svg8"
   inkscape:version="1.0.1 (3bc2e813f5, 2020-09-07)"
   sodipodi:docname="moaisculpture.svg"
   inkscape:export-filename="D:\SteamLibrary\steamapps\common\RimWorld\Mods\MoaiWorld\Common\Textures\Things\Building\Art\MoaiLarge\MoaiLargeA.png"
   inkscape:export-xdpi="96"
   inkscape:export-ydpi="96">
  <defs
     id="defs2" />
  <sodipodi:namedview
     id="base"
     pagecolor="#00795c"
     bordercolor="#000000"
     borderopacity="1"
     inkscape:pageopacity="0"
     inkscape:pageshadow="2"
     inkscape:zoom="1.979899"
     inkscape:cx="134.50471"
     inkscape:cy="133.66557"
     inkscape:document-units="mm"
     inkscape:current-layer="layer1"
     inkscape:document-rotation="0"
     showgrid="true"
     units="px"
     inkscape:window-width="1718"
     inkscape:window-height="1368"
     inkscape:window-x="1713"
     inkscape:window-y="0"
     inkscape:window-maximized="0"
     inkscape:object-paths="false"
     inkscape:snap-midpoints="true"
     inkscape:snap-smooth-nodes="true"
     inkscape:snap-intersection-paths="true"
     inkscape:snap-bbox="true"
     inkscape:snap-bbox-midpoints="true">
    <inkscape:grid
       type="xygrid"
       id="grid833"
       spacingx="1.0583333"
       spacingy="1.0583333"
       empspacing="4" />
    <inkscape:grid
       type="xygrid"
       id="grid849"
       spacingx="33.866667"
       spacingy="33.866667"
       color="#e6e100"
       opacity="0.1254902"
       empcolor="#ffe300"
       empopacity="0.25098039" />
  </sodipodi:namedview>
  <metadata
     id="metadata5">
    <rdf:RDF>
      <cc:Work
         rdf:about="">
        <dc:format>image/svg+xml</dc:format>
        <dc:type
           rdf:resource="http://purl.org/dc/dcmitype/StillImage" />
        <dc:title />
      </cc:Work>
    </rdf:RDF>
  </metadata>
  <g
     inkscape:label="Layer 1"
     inkscape:groupmode="layer"
     id="layer1">
    <path
       id="path853-9-3"
       style="fill:none;fill-opacity:1;stroke:#000000;stroke-width:3.175;stroke-linecap:butt;stroke-linejoin:miter;stroke-miterlimit:4;stroke-dasharray:none;stroke-opacity:1"
       d="m 33.866667,6.3500001 c -4.363619,0 -7.408335,1.0583331 -12.7,3.175 -0.63011,1.8903289 -1.258693,5.1066829 -1.832963,8.8134159 -0.381576,0.286346 -0.861218,0.808281 -1.342037,1.769917 -0.997484,1.994969 -5.753997,18.089277 -0.981335,19.933666 -0.04778,0.917175 -0.077,1.713161 -0.077,2.291334 0.205468,1.643745 0.490551,3.04556 0.907438,4.241601 -0.109359,0.937938 -0.299031,2.094855 -0.630969,3.304707 -0.976509,0.302543 -1.804305,0.611222 -2.393136,0.920359 -2.512593,1.522052 -1.753227,2.164635 -2.116666,8.466666 l 3.427181,2.116667 c 3.779761,4.233333 11.389485,4.233333 17.739485,4.233333 6.350001,0 13.758187,0 17.537948,-4.233333 l 3.628719,-2.116667 C 54.669891,52.964635 55.429261,52.322052 52.916667,50.8 52.327837,50.490863 51.50004,50.182184 50.523531,49.879641 50.191593,48.669789 50.001921,47.512872 49.892562,46.574934 50.30945,45.378893 50.594532,43.977078 50.8,42.333333 c 0,-0.578173 -0.02922,-1.374159 -0.077,-2.291334 4.772662,-1.844395 0.01615,-17.938697 -0.981335,-19.933666 -0.480568,-0.961136 -0.96004,-1.483471 -1.34152,-1.769917 -0.574274,-3.706767 -1.203365,-6.923073 -1.83348,-8.8134159 -5.291664,-2.1166659 -8.336379,-3.175 -12.7,-3.175 z" />
    <path
       id="path853-9"
       style="fill:#cccccc;fill-opacity:1;stroke:none;stroke-width:1.11118;stroke-linecap:butt;stroke-linejoin:miter;stroke-miterlimit:4;stroke-dasharray:none;stroke-opacity:1"
       d="m 128,176 c 0,0 -56.761903,8.00001 -71.999998,16.00001 -9.496419,5.75264 -6.62637,8.1813 -8.000001,32 l 12.953126,8 C 75.238838,248.00001 104,248 128,248 c 24,0 51.99946,1e-5 66.28517,-15.99999 l 13.71484,-8 c -1.37364,-23.8187 1.49642,-26.24736 -8,-32 C 184.76192,184.00001 128,176 128,176 Z"
       transform="scale(0.26458333)"
       sodipodi:nodetypes="ccccscccc" />
    <path
       id="path855"
       style="fill:#b3b3b3;fill-opacity:1;stroke:none;stroke-width:0.999999px;stroke-linecap:butt;stroke-linejoin:miter;stroke-opacity:1"
       d="M 76 68 C 76 68 71.999999 67.999999 68 76 C 64.000001 83.999997 43.999992 152.00002 68 152 L 80 84 L 76 68 z M 180 68 L 176 84 L 188 152 C 212.00001 152 192 83.999997 188 76 C 184 67.999999 180 68 180 68 z "
       transform="scale(0.26458333)" />
    <path
       id="path865"
       style="fill:#808080;fill-opacity:1;stroke:none;stroke-width:0.999999px;stroke-linecap:butt;stroke-linejoin:miter;stroke-opacity:1"
       d="m 68,168 c 0,0 -7e-6,12.00002 -3.999998,24.00001 -8e-6,8.00001 9.526206,15.01809 16,24 6.473794,8.98191 12.000013,12 23.999998,16 11.99999,4 13.25032,3.99999 24,3.99999 10.74968,0 12.00001,1e-5 24,-3.99999 11.99999,-4 17.52621,-7.01809 24,-16 6.47379,-8.98191 16.00002,-15.99999 16.00001,-24 C 188.00002,180.00002 188,168 188,168 h -60 z"
       transform="scale(0.26458333)"
       sodipodi:nodetypes="ccsszsscccc" />
    <path
       id="path851"
       style="fill:#e6e6e6;fill-opacity:1;stroke:none;stroke-width:1.15654;stroke-linecap:butt;stroke-linejoin:miter;stroke-miterlimit:4;stroke-dasharray:none;stroke-opacity:1"
       d="m 128,24 c -16.49242,0 -28.000006,4 -48,12 -8.000005,24.000001 -16,104.00001 -16,124 3.999999,32.00001 15.833625,40 64,40 48.16638,0 60,-7.99999 64,-40 0,-19.99999 -7.99999,-99.999999 -16,-124 -19.99999,-7.999997 -31.50758,-12 -48,-12 z"
       transform="scale(0.26458333)"
       sodipodi:nodetypes="zcczccz" />
    <path
       id="path857"
       style="fill:#808080;stroke:none;stroke-width:0.999999px;stroke-linecap:butt;stroke-linejoin:miter;stroke-opacity:1"
       d="m 128,156 c -19.1036,0 -28.533208,8.6333 -28.899907,11.47498 C 98.733395,170.31665 108,168 128,168 c 20,0 29.2666,2.31665 28.89991,-0.52502 C 156.53321,164.6333 147.1036,156 128,156 Z"
       transform="scale(0.26458333)"
       sodipodi:nodetypes="zsssz" />
    <path
       id="path859"
       style="fill:#808080;fill-opacity:1;stroke:none;stroke-width:0.999999px;stroke-linecap:butt;stroke-linejoin:miter;stroke-opacity:1"
       d="m 128,148 c -18.97367,0 -28.000002,8 -28.000002,8 0,0 20.000002,-4 28.000002,-4 8,0 28,4 28,4 0,0 -9.02633,-8 -28,-8 z"
       transform="scale(0.26458333)"
       sodipodi:nodetypes="zczcz" />
    <path
       id="path863"
       style="fill:#808080;fill-opacity:1;stroke:none;stroke-width:0.852801px;stroke-linecap:butt;stroke-linejoin:miter;stroke-opacity:1"
       d="m 128,56 c -24.26182,0 -44,8.000001 -44,24 20.44304,6.928751 28,16.000003 44,-15.999998 C 144,96.000003 151.55696,86.928751 172,80 172,64.000001 152.26182,56 128,56 Z"
       transform="scale(0.26458333)"
       sodipodi:nodetypes="zcccz" />
    <path
       id="path869"
       style="fill:#f2f2f2;stroke:none;stroke-width:0.264583px;stroke-linecap:butt;stroke-linejoin:miter;stroke-opacity:1"
       d="m 31.749998,27.516665 c 0,0 -2.116664,2.116669 -4.233334,5.027083 -0.264583,1.322917 2e-6,1.322918 2.116668,2.38125 h 2.116666 l 4.233335,10e-7 h 2.116666 c 2.116666,-1.058332 2.38125,-1.058333 2.116667,-2.38125 -0.264584,-1.322917 -4.233334,-5.027083 -4.233334,-5.027083 z"
       sodipodi:nodetypes="ccccccscc" />
    <path
       id="path861"
       style="fill:#f9f9f9;fill-opacity:1;stroke:none;stroke-width:0.264583px;stroke-linecap:butt;stroke-linejoin:miter;stroke-opacity:1"
       d="m 33.866667,16.933334 c -0.788834,0 -1.058334,1e-6 -2.116667,1.058334 -1.058333,1.058334 -2.116668,16.933331 -2.116668,16.933331 2.116667,0 4.233334,2.116667 4.233334,2.116667 0,0 2.116666,-2.116667 4.233333,-2.116667 0,0 -1.058332,-15.874997 -2.116666,-16.933331 C 34.925,16.933335 34.655501,16.933334 33.866667,16.933334 Z"
       sodipodi:nodetypes="zscccsz" />
    <path
       id="path867"
       style="fill:#808080;stroke:none;stroke-width:0.999999px;stroke-linecap:butt;stroke-linejoin:miter;stroke-opacity:1"
       d="m 120,128 c -4.20576,1.74208 -12,0 -16,0 8,8 12,12 24,12 12,0 16,-4 24,-12 -4,0 -11.79423,1.74209 -16,0 -4.20576,-1.74208 -11.79424,-1.74208 -16,0 z"
       transform="scale(0.26458333)"
       sodipodi:nodetypes="zcsczz" />
  </g>
</svg>
